<?xml version="1.0" standalone="no"?>
<!DOCTYPE svg PUBLIC "-//W3C//DTD SVG 20010904//EN"
 "http://www.w3.org/TR/2001/REC-SVG-20010904/DTD/svg10.dtd">
<svg version="1.0" xmlns="http://www.w3.org/2000/svg"
 width="260.000000pt" height="260.000000pt" viewBox="0 0 260.000000 260.000000"
 preserveAspectRatio="xMidYMid meet">
<metadata>
Created by potrace 1.11, written by Peter Selinger 2001-2013
</metadata>
<g transform="translate(0.000000,260.000000) scale(0.100000,-0.100000)"
fill="#000000" stroke="none">
<path d="M0 1300 l0 -1300 1300 0 1300 0 0 1300 0 1300 -1300 0 -1300 0 0
-1300z m721 604 c23 -21 25 -27 124 -354 130 -428 137 -451 142 -447 2 3 53
177 113 388 99 347 113 387 140 412 17 15 41 27 55 27 14 0 38 -12 55 -27 31
-29 56 -107 207 -665 21 -76 40 -134 44 -130 4 4 53 153 109 332 148 474 140
451 178 473 39 23 73 17 108 -18 41 -41 57 23 -191 -765 -138 -440 -144 -454
-210 -454 -56 0 -81 33 -115 154 -143 511 -181 644 -184 647 -6 6 -13 -19
-121 -397 -52 -184 -99 -345 -105 -357 -13 -31 -66 -56 -99 -48 -57 14 -54 6
-221 555 -202 661 -190 613 -170 650 25 47 101 60 141 24z"/>
</g>
</svg>
