<?xml version="1.0" standalone="no"?>
<!DOCTYPE svg PUBLIC "-//W3C//DTD SVG 1.1//EN"
  "http://www.w3.org/Graphics/SVG/1.1/DTD/svg11.dtd">
<svg width="100%" height="421" xmlns="http://www.w3.org/2000/svg">
 <style>
   .back {
      fill:#595656;
   }
   .next {
      fill:#595656;
      opacity:.5;
   }
   .refresh{
      fill:#595656
   }
   .text {
    fill:#333;
    font-family: "Noto Sans", sans-serif;
   }
   #urlBar {

   }
 </style>
<g id="marco">
  <rect stroke="null" fill="#EAEAEA" x="0" y="0" width="100%" height="340px" rx="10"/>
</g>
<g id="clipping">
  <rect class="clip" stroke="null" fill="#FFFFFF" y="40px" width="100%" height="310px"/>
</g>
<g id="icons">
   <path d="m29.9,19.7l-11.8,0l5.4,-5.4l-1.4,-1.4l-7.7,7.7l7.7,7.7l1.4,-1.4l-5.4,-5.4l11.7,0l0,-1.8l0.1,0z" class="back"/>
   <path d="m52.8,12.6l-1.4,1.4l5.6,5.6l-12.2,0l0,2l12.2,0l-5.6,5.6l1.4,1.4l8,-8l-8,-8z" class="next"/>
   <path d="m89,15c-1.4,-1.4 -3.4,-2.4 -5.7,-2.4c-4.4,0 -8,3.6 -8,8s3.6,8 8,8c3.7,0 6.8,-2.5 7.7,-6l-2,0c-0.8,2.3 -3,4 -5.7,4c-3.3,0 -6,-2.7 -6,-6s2.7,-6 6,-6c1.7,0 3.1,0.7 4.2,1.8l-3.2,3.2l7,0l0,-7l-2.3,2.4z" class="refresh"/>
</g>
<g id="urlBar">
  <rect stroke="null" fill="#FFFFFF" rx="13" width="60%" x="100px" y="8px" height="26px"/>
</g>
</svg>
