<?xml version="1.0" encoding="utf-8"?>
<!-- Generator: Adobe Illustrator 19.0.0, SVG Export Plug-In . SVG Version: 6.00 Build 0)  -->
<svg version="1.1" xmlns="http://www.w3.org/2000/svg" xmlns:xlink="http://www.w3.org/1999/xlink" x="0px" y="0px"
	 viewBox="0 0 5097 2367" style="enable-background:new 0 0 5097 2367;" xml:space="preserve">
<style type="text/css">
	.st0{fill:#ffffff;stroke:#ffffff;stroke-width:76;stroke-linecap:round;stroke-linejoin:round;stroke-miterlimit:10;}
	.st1{fill:#ffffff;stroke:#ffffff;stroke-width:12;stroke-miterlimit:10;}
	.letra{fill:#ffffff}
</style>
<g id="Layer_1">
	<path id="XMLID_20_" class="letra" d="M3300.9,1553.8v-516.5h126.6v106.9h5c3.3-13.9,8.4-27.2,15.3-40.1c6.9-12.9,16-24.2,27.2-34.1
		c11.2-9.9,24.6-17.8,40.1-23.7c15.5-5.9,33.5-8.9,53.9-8.9h27.7V1157h-39.6c-42.9,0-75.2,6.3-97,18.8c-21.8,12.5-32.7,33-32.7,61.3
		v316.6H3300.9z"/>
	<path id="XMLID_22_"  class="letra" d="M3893.6,1565.6c-38.3,0-72.4-6.4-102.4-19.3c-30-12.9-55.4-31-76.2-54.4c-20.8-23.4-36.8-51.8-48-85.1
		c-11.2-33.3-16.8-70.7-16.8-112.3c0-40.9,5.4-77.8,16.3-110.8c10.9-33,26.5-61.2,47-84.6c20.4-23.4,45.5-41.5,75.2-54.4
		c29.7-12.9,63.3-19.3,100.9-19.3c40.2,0,75.2,6.9,104.9,20.8c29.7,13.9,54.1,32.6,73.2,56.4c19.1,23.7,33.5,51.3,43,82.6
		c9.6,31.3,14.3,64.8,14.3,100.4v41.6h-343.3v12.8c0,37.3,10.5,67.3,31.7,89.9c21.1,22.6,52.4,33.9,94,33.9
		c31.7,0,57.5-6.5,77.7-19.6c20.1-13.1,38.1-29.8,53.9-50.1l68.3,76.4c-21.1,29.8-50,53.1-86.6,70
		C3984.1,1557.2,3941.7,1565.6,3893.6,1565.6z M3891.6,1120.4c-33.6,0-60.4,11.2-80.1,33.6c-19.8,22.4-29.7,51.5-29.7,87.1v7.9
		h211.7v-8.9c0-35.6-8.8-64.5-26.2-86.6C3949.8,1131.4,3924.6,1120.4,3891.6,1120.4z"/>
	<path id="XMLID_25_"  class="letra" d="M4616.8,1553.8c-27.7,0-49.6-8.1-65.8-24.2c-16.2-16.2-26.2-37.8-30.2-64.8h-5.9
		c-8.6,33.6-26.1,58.9-52.4,75.7c-26.4,16.8-59,25.2-98,25.2c-52.8,0-93.3-13.8-121.7-41.4c-28.4-27.6-42.5-64.4-42.5-110.5
		c0-53.2,19.1-92.9,57.4-118.8c38.2-26,92.7-39,163.3-39h88.1v-37.6c0-29-7.6-51.5-22.8-67.3c-15.2-15.8-39.6-23.7-73.2-23.7
		c-29.7,0-53.6,6.4-71.7,19.3c-18.1,12.9-33.5,28.2-46,46l-75.2-67.7c19.1-29.9,44.5-53.9,76.2-72.2c31.7-18.2,73.5-27.4,125.7-27.4
		c69.9,0,123,15.8,159.3,47.4c36.3,31.6,54.4,77,54.4,136.2v242.8h51.5v101.9H4616.8z M4407.1,1473.6c28.4,0,52.4-6.2,72.2-18.7
		c19.8-12.4,29.7-30.8,29.7-55v-67.8h-81.1c-66,0-98.9,21-98.9,62.9v16.7c0,21,6.8,36.5,20.3,46.7
		C4362.7,1468.5,4382,1473.6,4407.1,1473.6z"/>
</g>
<g id="Layer_4">
</g>
<g id="Layer_3">
</g>
<g id="Layer_5">
	<g id="XMLID_53_">
		<path id="XMLID_65_"  class="letra" d="M2262.1,1727.9c-36.7,0-72.1-8.4-105.5-24.9c-31.5-15.6-59.4-37.9-83.5-66c-48-56.3-74.2-130.6-74.2-209.3
			V740.3c0-28.3,22.7-51.3,51-51.3c28.3,0,51,23,51,51.3v387.3c1,0,0.9,0,1.3,0l159.8-0.1c36.7,0,72.2,8.4,105.5,24.9
			c31.5,15.6,59.7,37.8,83.7,66c48,56.3,74.5,130.6,74.5,209.3c0,78.7-26.4,153-74.5,209.3c-24,28.2-52.2,50.4-83.8,66
			C2334.2,1719.5,2298.8,1727.9,2262.1,1727.9z M2119,1252.1v175.6c0,96.8,64.2,175.6,143.1,175.6c78.9,0,143.2-78.8,143.2-175.6
			c0-104.8-60.2-175.6-143.2-175.6l-141.9,0.1C2119.8,1252.1,2119,1252.1,2119,1252.1z"/>
	</g>
	<path id="XMLID_52_" class="st0" d="M2583.2,1320.9"/>
	<g id="XMLID_37_">
		<path id="XMLID_38_" class="st1" d="M1689,1512.4c-35.8,0-70.5-7.8-103.1-23.2c-31.2-14.7-59.1-35.6-82.9-62.1
			c-48.3-53.7-74.9-124.8-74.9-200.2c0-75.9,22.5-146.2,63.5-198c44.5-56.3,107.7-87.2,178.2-87.2c70.6,0,136.7,30.2,186,85.1
			c48.3,53.7,74.8,124.9,74.8,200.5c0,11.4-4.5,26.2-12.6,34.3c-8.1,8-19,16.4-30.4,16.4c0,0,0,0,0,0l-369.6-4.2
			c17.3,89.5,87.4,154.7,171,154.7c58.3,0,112.6-33.9,145.2-89c12.1-20.4,38.4-27.6,58.8-15.5c20.4,12.1,27.1,38.2,15,58.6
			C1859.8,1464,1777.9,1512.4,1689,1512.4z M1554.4,1166.1l249.1,0.2c-13.3-69-67.3-120.7-131.7-120.7
			C1604.5,1045.6,1564.6,1102,1554.4,1166.1z"/>
	</g>
	<g id="XMLID_34_">
		<path id="XMLID_36_" class="st0" d="M3253,1375.4"/>
	</g>
</g>
<g id="Layer_2">
	<g id="XMLID_8_">
		<path id="XMLID_9_"  class="letra" d="M720.5,1673.9c-28.2,0-53.2-18.4-61.5-45.5L428.7,878.3c-10.4-34,8.7-70,42.6-80.4
			c34-10.4,70,8.7,80.4,42.6l166.8,543.1l155.7-542c7.9-27.6,33.2-46.6,61.9-46.6c0.1,0,0.1,0,0.2,0c28.8,0,54,19.3,61.8,47
			l152.2,541.7L1321.9,840c10.7-33.9,46.9-52.7,80.8-42c33.9,10.7,52.7,46.9,42,80.8l-236.5,749.5c-8.5,26.8-33.3,45-61.4,45
			c-0.3,0-0.7,0-1,0c-28.5-0.5-53.2-19.5-60.9-46.9l-149.4-531.4l-153,532.5c-7.9,27.4-32.8,46.3-61.3,46.6
			C720.9,1673.9,720.7,1673.9,720.5,1673.9z"/>
	</g>
	<path id="XMLID_3_"  class="letra"  d="M3117,1355.4c-45.5,62.6-119.3,103.4-202.7,103.4c-138.3,0-250.3-112.1-250.3-250.3s112.1-250.3,250.3-250.3
		c69.1,0,131.7,28,177,73.3l80.7-70.3c-65-67.7-156.4-109.8-257.7-109.8c-197.3,0-357.2,159.9-357.2,357.2s159.9,357.2,357.2,357.2
		c121.7,0,229.2-60.9,293.7-153.8L3117,1355.4 M3117,1355.4"/>
</g>
</svg>
